<?xml version="1.0" standalone="no"?>
<!DOCTYPE svg PUBLIC "-//W3C//DTD SVG 20010904//EN"
 "http://www.w3.org/TR/2001/REC-SVG-20010904/DTD/svg10.dtd">
<svg version="1.0" xmlns="http://www.w3.org/2000/svg"
 width="1080.000000pt" height="959.000000pt" viewBox="0 0 1080.000000 959.000000"
 preserveAspectRatio="xMidYMid meet">

<g transform="translate(0.000000,959.000000) scale(0.100000,-0.100000)"
fill="#000000" stroke="none">
<path d="M681 9295 c-55 -17 -142 -76 -174 -118 -13 -18 -35 -52 -48 -77 l-24
-45 0 -4185 0 -4185 25 -50 c33 -67 102 -135 175 -171 l60 -29 4700 0 4700 0
54 28 c79 42 144 107 177 180 l29 62 0 4165 0 4165 -27 57 c-35 76 -95 138
-170 179 l-63 34 -4685 2 c-3952 1 -4692 0 -4729 -12z m4794 -690 c8 -120 5
-155 -22 -211 -25 -54 -47 -51 -53 8 -7 59 -30 89 -30 40 0 -18 5 -32 10 -32
12 0 13 -30 1 -48 -12 -19 -69 32 -92 82 -17 38 -17 42 1 90 14 38 37 67 87
113 37 35 73 63 80 63 7 0 14 -37 18 -105z m478 93 c2 -7 -4 -30 -14 -50 -11
-21 -19 -44 -19 -52 0 -8 -11 -27 -24 -43 -22 -25 -30 -28 -84 -26 -73 1 -82
6 -82 41 0 39 32 93 70 120 38 25 145 32 153 10z m307 -35 c0 -16 -30 -104
-46 -138 -16 -35 -98 -94 -111 -81 -3 3 -12 1 -19 -5 -34 -28 -45 139 -12 178
29 35 73 53 131 53 31 0 57 -3 57 -7z m-1099 -30 c24 -62 -27 -269 -72 -293
-33 -18 -46 -11 -74 42 -40 74 -40 133 0 180 28 33 111 97 128 98 4 0 12 -12
18 -27z m810 -150 c33 -83 18 -151 -43 -196 -44 -32 -65 -39 -80 -24 -7 7 -20
12 -28 12 -28 0 -33 98 -8 148 12 23 107 86 131 86 10 1 22 -10 28 -26z m453
-42 l29 -12 -40 -33 c-21 -19 -52 -53 -67 -75 -34 -48 -78 -64 -144 -52 -23 5
-45 10 -47 13 -2 2 1 23 7 47 7 28 26 60 54 89 l43 44 68 -4 c37 -3 81 -10 97
-17z m-720 -17 c3 -9 6 -45 6 -81 0 -71 -15 -103 -74 -155 -57 -51 -98 -26
-111 68 -8 62 13 103 74 146 58 40 95 48 105 22z m-744 -51 c41 -28 60 -56 57
-83 -2 -23 -6 -25 -48 -24 -34 0 -58 8 -96 33 -67 43 -71 56 -25 75 49 20 82
20 112 -1z m217 -35 c43 -47 73 -124 73 -188 0 -60 -21 -130 -38 -130 -11 0
-22 34 -22 68 0 12 -3 22 -8 22 -4 0 -6 -17 -4 -39 2 -21 -1 -41 -6 -45 -5 -3
-29 15 -52 40 -42 46 -42 46 -38 112 4 66 46 182 66 182 5 0 18 -10 29 -22z
m1603 -24 l63 -28 -34 -29 c-73 -63 -121 -87 -168 -86 -81 2 -97 10 -92 49 4
44 47 108 81 123 27 11 86 0 150 -29z m-660 -79 c0 -18 -5 -58 -11 -87 -9 -43
-20 -62 -60 -100 -50 -49 -89 -62 -89 -30 0 9 -14 -10 -31 -43 -17 -33 -44
-80 -59 -105 -70 -115 -141 -264 -165 -349 -25 -87 -27 -108 -27 -275 0 -170
-2 -183 -22 -216 -29 -45 -46 -95 -46 -132 0 -38 -19 -33 -43 13 -20 37 -18
83 9 289 7 58 14 159 14 226 0 114 -2 124 -30 180 -22 44 -44 70 -89 104 -33
25 -61 48 -61 53 0 4 -7 7 -16 7 -8 0 -13 4 -9 10 7 12 89 -23 133 -57 19 -14
49 -47 69 -74 19 -27 38 -49 43 -49 4 0 35 42 69 93 34 50 77 115 97 142 65
91 96 165 104 240 4 39 15 87 25 108 23 50 89 84 163 86 30 1 32 -1 32 -34z
m-679 -52 c18 -75 18 -179 0 -223 -24 -57 -63 -111 -79 -108 -19 4 -51 83 -51
130 -1 56 84 258 108 258 4 0 14 -26 22 -57z m350 16 c29 -33 42 -87 36 -146
-7 -67 -20 -84 -61 -79 -22 2 -38 13 -53 36 -29 42 -29 49 3 138 28 77 43 87
75 51z m635 8 c5 -15 -35 -95 -73 -146 -33 -43 -100 -73 -156 -69 -39 3 -42 5
-45 36 -4 43 23 124 51 150 34 32 65 41 145 41 51 1 74 -3 78 -12z m-1813 -38
c53 -24 77 -118 36 -139 -11 -7 -45 -14 -74 -17 l-54 -6 -60 58 c-33 32 -58
62 -55 67 23 36 157 60 207 37z m304 -26 c57 -75 66 -131 37 -232 -9 -31 -18
-62 -20 -70 -3 -10 -7 -11 -19 -1 -11 9 -12 17 -4 32 8 14 8 23 0 31 -8 8 -11
5 -11 -11 0 -35 -18 -26 -50 25 -41 64 -54 116 -40 156 13 40 57 107 69 107 5
0 22 -17 38 -37z m1715 -35 c48 -14 55 -28 37 -71 -20 -50 -49 -85 -84 -101
-26 -13 -42 -13 -93 -4 -73 14 -78 27 -32 91 71 101 90 110 172 85z m472 -63
c41 -42 62 -80 48 -89 -4 -2 -39 -9 -78 -16 -62 -11 -77 -11 -123 5 -29 9 -55
23 -57 30 -9 21 24 74 59 95 18 11 49 20 70 20 32 0 45 -7 81 -45z m-1494 -46
c20 -35 25 -58 25 -116 0 -64 -3 -74 -22 -88 -13 -9 -23 -23 -23 -31 0 -22
-17 -17 -45 13 -35 39 -58 90 -51 117 12 47 69 157 80 153 6 -2 22 -23 36 -48z
m1186 -1 c57 -89 37 -163 -56 -211 -44 -23 -51 -24 -65 -11 -22 23 -18 86 10
149 27 63 62 115 76 115 5 0 21 -19 35 -42z m-1676 -55 c56 -68 70 -161 38
-245 -24 -62 -128 -6 -144 77 -6 33 16 164 33 198 10 18 44 4 73 -30z m1046
-18 c7 -16 -16 -111 -39 -166 -24 -58 -133 -98 -204 -75 -27 9 -30 41 -10 96
30 84 68 116 167 142 81 21 79 21 86 3z m-1408 -46 c52 -29 69 -52 83 -115 11
-48 10 -57 -4 -71 -14 -14 -22 -15 -55 -5 -92 28 -130 78 -131 176 l-1 48 36
-6 c19 -4 52 -16 72 -27z m1527 -45 c4 -27 11 -53 15 -59 4 -5 10 -22 14 -36
3 -15 15 -29 26 -32 18 -5 20 -11 15 -39 -4 -21 0 -51 11 -83 19 -53 25 -240
10 -317 -9 -47 -1 -48 85 -9 35 15 85 36 111 45 105 38 158 130 158 274 0 39
4 73 9 76 14 9 24 -52 24 -144 1 -72 -3 -93 -26 -136 -14 -28 -39 -63 -56 -76
-29 -25 -121 -73 -195 -103 -22 -8 -36 -18 -33 -21 3 -4 37 -10 74 -15 37 -5
89 -12 115 -15 41 -6 47 -4 58 17 23 44 81 109 92 103 7 -4 8 -34 4 -85 l-7
-78 28 -6 c15 -4 41 -11 57 -16 16 -5 41 -9 56 -9 14 0 35 -7 46 -15 11 -8 42
-14 76 -15 l57 0 42 70 c46 78 54 84 144 110 35 10 72 21 84 25 20 6 21 3 21
-58 0 -57 -4 -71 -32 -112 -19 -27 -52 -58 -76 -71 -44 -25 -116 -32 -127 -14
-3 6 -17 10 -31 10 -14 0 -27 7 -30 15 -4 10 -21 15 -53 15 -26 0 -50 -3 -54
-6 -3 -3 4 -21 15 -41 19 -31 20 -38 8 -76 -21 -65 -42 -97 -65 -97 -39 0 -99
43 -113 82 -17 45 -9 88 16 88 20 0 74 -53 87 -85 7 -17 9 -18 12 -3 5 20 -17
62 -51 100 -24 26 -28 27 -86 21 -45 -4 -63 -11 -71 -25 -14 -26 -69 -271 -63
-280 9 -14 68 -8 164 17 52 14 104 29 115 34 11 5 65 26 120 47 55 20 130 57
167 82 37 24 72 42 79 40 18 -6 -37 -65 -104 -109 -84 -56 -97 -62 -239 -108
-135 -45 -161 -64 -100 -76 41 -7 85 -44 109 -89 16 -31 31 -186 18 -186 -4 0
-48 21 -98 48 -78 41 -93 52 -108 87 -34 80 -34 85 2 92 32 6 32 6 8 16 -13 5
-66 10 -118 12 l-93 3 -141 -95 c-78 -52 -148 -98 -156 -101 -18 -7 -41 25
-41 59 0 24 11 32 113 82 188 93 236 141 222 226 -3 20 1 81 10 136 22 145 23
140 -31 155 -61 17 -202 17 -234 0 -77 -41 -155 -132 -190 -220 -7 -19 -16
-39 -20 -45 -4 -5 -20 -62 -35 -125 -15 -63 -32 -119 -36 -124 -5 -6 -22 -3
-44 7 -25 12 -35 23 -35 40 0 13 3 27 7 31 18 17 43 127 43 187 0 64 -20 143
-46 184 -7 11 -20 37 -29 58 -15 36 -15 38 2 28 10 -5 41 -46 68 -90 28 -44
53 -81 57 -81 4 0 15 12 25 28 27 41 127 164 158 192 79 73 91 235 33 450 -36
138 -46 185 -52 248 -5 54 -4 61 8 49 8 -8 18 -36 21 -63z m847 18 c13 -13
-112 -174 -147 -190 -28 -13 -97 -16 -108 -5 -4 3 -1 13 6 21 10 13 8 14 -11
8 -17 -6 -22 -3 -22 10 0 61 59 158 103 168 34 7 169 -2 179 -12z m-2612 -7
c25 -13 70 -63 70 -79 0 -3 -21 -7 -47 -8 l-48 -1 43 -4 c23 -2 42 -8 42 -13
0 -39 -48 -70 -107 -69 -59 0 -178 34 -181 51 -4 19 41 73 92 109 44 33 91 37
136 14z m840 -45 c0 -5 -2 -10 -4 -10 -3 0 -8 5 -11 10 -3 6 -1 10 4 10 6 0
11 -4 11 -10z m1260 -22 c0 -75 -13 -111 -52 -150 -44 -44 -87 -65 -98 -47 -5
6 -10 1 -14 -15 -9 -36 -24 -33 -42 9 -31 76 -10 161 48 191 40 21 106 42 136
43 18 1 22 -4 22 -31z m-1588 -286 c66 -200 140 -302 368 -500 205 -179 305
-283 342 -360 29 -58 30 -64 15 -79 -30 -30 -75 4 -181 137 -106 132 -151 179
-298 314 -182 167 -258 288 -306 488 -22 93 -36 230 -25 242 4 4 16 -21 26
-56 11 -35 37 -118 59 -186z m2096 93 c6 -114 -40 -177 -150 -206 -66 -18 -82
-4 -76 71 7 90 22 109 118 157 47 23 90 41 95 39 6 -1 11 -29 13 -61z m-2761
-29 c20 -25 23 -37 21 -90 -3 -52 -6 -61 -21 -59 -12 0 -17 -4 -13 -13 9 -23
-16 -26 -60 -8 -54 22 -82 51 -94 95 -12 44 -3 75 36 118 l27 31 40 -23 c22
-12 50 -35 64 -51z m380 59 c68 -28 103 -62 103 -99 0 -21 -8 -40 -21 -52 -15
-14 -20 -29 -19 -64 4 -117 0 -146 -26 -187 -30 -45 -74 -76 -97 -67 -17 6
-33 42 -43 95 -8 50 23 120 65 145 34 20 26 34 -21 34 -28 0 -87 28 -130 63
l-27 22 25 33 c26 32 117 92 142 92 7 0 29 -7 49 -15z m1423 -26 c35 -19 63
-41 78 -61 21 -26 32 -87 21 -115 -8 -21 -12 -23 -25 -12 -8 7 -22 26 -31 43
-15 30 -53 73 -53 60 0 -13 44 -84 52 -84 4 0 8 -11 8 -25 0 -19 -5 -25 -21
-25 -32 0 -86 29 -104 56 -22 34 -29 102 -16 151 11 39 13 41 39 33 15 -4 38
-14 52 -21z m1235 4 c30 -14 61 -33 69 -42 23 -26 66 -112 66 -132 0 -21 -29
-26 -46 -9 -6 6 -63 15 -126 20 -135 11 -168 21 -168 50 0 62 67 140 121 140
17 0 55 -12 84 -27z m-2031 -89 c36 -12 56 -28 83 -64 20 -26 34 -52 32 -56
-8 -21 -191 -61 -230 -51 -31 8 -92 64 -84 77 3 5 37 10 75 10 73 0 97 13 57
31 -18 8 -39 8 -77 0 -65 -14 -79 -6 -43 25 51 44 112 53 187 28z m-772 -369
c95 -177 169 -252 298 -302 l25 -10 -32 -16 c-46 -24 -67 -21 -128 17 -115 74
-210 218 -264 402 -21 70 -28 154 -14 168 4 4 26 -44 50 -106 24 -62 53 -131
65 -153z m2546 186 c5 -66 -37 -144 -92 -170 -55 -27 -122 -28 -136 -2 -11 22
-4 73 17 113 15 30 45 49 120 74 26 9 52 20 58 25 18 17 30 2 33 -40z m-2870
-10 c9 -5 33 -16 52 -25 19 -8 52 -32 73 -53 30 -32 39 -51 48 -99 12 -69 1
-114 -29 -114 -22 0 -130 63 -149 88 -25 32 -40 78 -47 145 -7 64 -7 67 13 67
12 0 29 -4 39 -9z m-163 -53 c29 -34 35 -50 33 -77 -3 -33 -6 -36 -58 -49 -69
-18 -121 -6 -175 41 -47 41 -44 56 22 97 35 22 59 30 94 30 43 0 51 -4 84 -42z
m839 -39 c91 -57 106 -84 113 -198 l6 -83 -34 7 c-53 11 -116 41 -144 69 -23
23 -25 33 -25 108 0 93 7 128 24 128 7 0 34 -14 60 -31z m2729 -68 c23 -15 52
-31 65 -35 33 -11 27 -40 -15 -76 -21 -17 -51 -42 -66 -56 -37 -33 -68 -44
-121 -44 -46 0 -68 14 -59 37 5 12 1 14 -15 8 -27 -8 -29 13 -7 76 39 109 133
149 218 90z m-1805 -123 c38 -26 102 -144 102 -190 0 -53 -41 -117 -77 -118
-9 0 -8 -7 2 -27 8 -16 17 -40 20 -55 9 -49 50 -85 122 -107 36 -12 76 -21 87
-21 45 0 96 -22 115 -48 15 -22 18 -36 11 -70 -7 -41 -47 -112 -63 -112 -17 0
-48 39 -71 91 -37 85 -94 126 -203 149 -34 7 -68 20 -76 29 -7 9 -22 54 -33
100 -19 82 -20 83 -62 103 -56 27 -112 92 -112 132 0 119 143 206 238 144z
m-1589 -57 c11 -7 10 -10 -6 -15 -15 -5 -18 -13 -15 -39 5 -42 -31 -121 -67
-146 -46 -33 -103 -43 -178 -31 -63 10 -123 27 -123 36 0 14 128 159 158 179
32 22 47 25 127 25 49 0 96 -4 104 -9z m291 -74 c38 -18 41 -22 22 -25 -14 -2
-29 -17 -42 -42 -10 -21 -36 -51 -57 -67 -50 -39 -141 -85 -153 -78 -6 4 -10
31 -10 61 0 81 35 153 85 175 30 13 103 2 155 -24z m2867 -75 c29 -15 69 -61
115 -131 28 -42 7 -53 -109 -59 -106 -5 -138 4 -177 47 -28 31 -14 51 36 52
l43 2 -40 6 c-80 13 -86 36 -17 74 54 31 103 34 149 9z m-2286 -46 c57 -17
163 -70 206 -102 43 -33 234 -127 311 -154 38 -13 104 -25 165 -29 182 -13
266 -84 243 -206 -6 -28 -15 -39 -46 -55 -22 -11 -46 -20 -55 -20 -9 0 -13 -4
-10 -10 3 -5 26 -10 50 -10 37 0 50 6 86 40 75 70 105 52 113 -70 5 -88 10
-119 45 -279 12 -52 21 -120 21 -151 0 -65 -7 -74 -105 -136 -33 -20 -62 -40
-65 -43 -3 -4 -30 -24 -60 -46 -65 -46 -146 -112 -213 -173 -44 -40 -50 -43
-64 -29 -27 27 -57 219 -47 307 13 118 36 170 133 298 53 71 55 75 54 137 -1
78 -27 128 -109 210 -55 54 -75 66 -274 155 -93 42 -209 116 -302 192 -79 66
-149 92 -258 96 -77 3 -110 0 -165 -17 -101 -30 -132 -52 -145 -102 -18 -64
-37 -86 -104 -118 -116 -56 -126 -51 -127 58 -1 62 3 78 25 111 26 40 89 80
124 80 24 0 42 -19 35 -36 -9 -24 23 -16 115 31 49 25 96 45 104 45 8 0 18 3
22 8 28 28 225 40 297 18z m-63 -142 c81 -40 39 -163 -69 -203 -18 -7 -42 -17
-52 -23 -25 -13 -29 -7 -34 49 -7 64 12 130 47 165 32 32 62 35 108 12z m2312
-101 c34 -35 80 -132 80 -170 0 -18 -17 -16 -131 17 -84 24 -136 65 -141 110
-3 22 2 26 32 29 l35 4 -40 12 -40 12 45 11 c90 20 119 16 160 -25z m-3189
-16 c59 -40 77 -109 39 -147 -26 -26 -94 -27 -137 0 -61 37 -121 139 -96 163
3 4 41 7 83 7 64 0 83 -4 111 -23z m1236 -133 c44 -17 56 -39 26 -48 -191 -55
-305 -97 -400 -147 -62 -32 -115 -59 -118 -59 -3 0 -5 11 -5 25 0 16 -7 28
-17 31 -10 3 -59 21 -108 40 -50 19 -96 34 -103 34 -22 0 -152 54 -152 63 0
11 55 3 130 -19 110 -32 126 -35 208 -44 46 -5 89 -13 96 -19 9 -8 36 4 102
44 49 30 103 59 119 65 17 5 55 18 85 29 69 24 84 25 137 5z m-920 -125 c36
-17 61 -35 56 -40 -4 -4 -35 -15 -67 -23 -72 -19 -81 -26 -33 -26 49 0 53 -12
11 -35 -32 -17 -40 -18 -82 -5 -26 7 -64 15 -84 18 -48 5 -50 28 -8 75 34 39
83 66 119 67 14 0 53 -14 88 -31z m194 -128 c26 -26 29 -36 29 -90 0 -67 -28
-127 -80 -168 -56 -46 -67 -38 -89 67 -17 77 15 166 72 200 18 11 33 20 35 20
2 0 17 -13 33 -29z m-262 -110 c6 -10 13 -43 17 -73 9 -76 -13 -120 -74 -151
-26 -12 -60 -31 -75 -41 -15 -10 -30 -16 -34 -13 -3 4 -8 51 -10 104 -5 96 -4
99 24 131 26 31 87 61 125 62 10 0 22 -9 27 -19z m1819 -500 c4 -28 -23 -137
-58 -231 -125 -334 -136 -385 -127 -570 13 -270 130 -475 337 -593 126 -71
466 -235 545 -262 104 -35 236 -99 259 -124 12 -14 16 -28 12 -45 -9 -35 -55
-40 -311 -34 -229 6 -256 12 -365 80 -78 50 -61 7 49 -122 31 -36 59 -66 64
-68 4 -2 7 -8 7 -13 0 -15 -39 12 -389 273 -81 60 -160 149 -180 202 -15 39
-21 47 -26 33 -15 -36 32 -167 79 -222 14 -16 26 -33 26 -37 0 -8 201 -184
246 -216 41 -28 90 -105 102 -159 6 -28 28 -64 66 -108 31 -36 56 -70 56 -76
0 -34 -86 26 -215 151 -139 135 -313 290 -325 290 -16 0 -11 -12 20 -55 16
-22 38 -56 49 -75 11 -19 43 -61 71 -93 33 -37 47 -58 38 -61 -7 -2 -36 -9
-64 -14 -28 -6 -80 -24 -115 -40 -121 -55 -155 -62 -315 -65 -129 -2 -155 1
-192 17 -28 13 -42 25 -42 38 0 11 35 52 83 96 176 164 229 230 268 331 25 64
28 125 15 312 -6 90 -5 159 4 243 10 84 10 120 2 128 -7 7 -16 0 -30 -28 -25
-49 -104 -153 -204 -270 -43 -50 -88 -104 -100 -121 -181 -249 -295 -365 -443
-454 -35 -21 -37 -24 -18 -27 12 -2 55 15 96 38 108 59 222 177 416 430 19 25
68 74 110 109 66 56 76 62 79 44 2 -12 -1 -98 -6 -191 -9 -154 -12 -175 -35
-216 -83 -149 -352 -394 -755 -685 -35 -25 -81 -61 -104 -78 -22 -18 -45 -33
-52 -33 -8 0 -18 28 -25 73 -25 148 -40 177 -115 224 -56 36 -163 37 -290 4
-79 -21 -94 -22 -140 -11 -39 9 -62 9 -91 1 -56 -15 -100 -15 -88 2 6 6 13 20
17 31 7 22 8 22 -109 -22 -108 -40 -171 -70 -225 -108 -46 -32 -80 -48 -80
-37 0 28 52 145 90 200 70 104 137 151 293 211 73 27 152 56 177 63 25 7 72
25 105 40 33 15 88 39 122 54 35 15 67 33 73 40 23 27 -85 79 -256 124 -85 22
-561 5 -711 -25 -27 -5 -33 -3 -33 11 0 18 70 86 110 107 14 7 27 15 30 18 7
7 127 65 175 85 22 9 130 32 240 51 110 20 220 39 245 44 25 4 88 15 142 24
93 15 161 31 318 77 151 43 379 158 518 261 155 115 286 313 332 504 30 121
39 139 111 217 58 64 95 95 219 187 91 67 165 124 179 137 18 18 35 11 39 -16z
m-3368 -3137 c0 -4 -9 -21 -20 -39 -19 -31 -20 -47 -18 -301 2 -178 7 -269 14
-271 12 -4 76 76 227 282 106 144 137 197 137 235 0 24 -30 80 -42 80 -4 0 -8
5 -8 10 0 6 58 10 155 10 85 0 155 -4 155 -8 0 -5 -17 -18 -37 -30 -45 -25
-138 -120 -180 -182 -68 -102 -144 -210 -153 -215 -25 -16 -12 -44 237 -525
92 -177 122 -228 159 -265 19 -20 34 -38 34 -40 0 -3 -74 -5 -164 -5 l-164 0
1 43 c2 45 -9 69 -145 322 -41 77 -78 149 -82 160 -3 11 -15 31 -25 44 -15 20
-21 22 -39 12 -12 -7 -37 -40 -55 -74 l-32 -62 0 -175 c0 -162 2 -178 23 -218
12 -23 22 -45 22 -47 0 -3 -74 -5 -165 -5 -91 0 -165 3 -165 7 0 4 9 26 20 49
20 41 21 56 18 597 l-3 555 -23 24 c-12 14 -19 28 -15 31 8 9 333 9 333 1z
m1588 -33 c2 -19 1 -45 -3 -59 -5 -22 -8 -23 -23 -9 -9 8 -35 20 -57 26 -51
14 -380 15 -406 1 -18 -10 -19 -23 -19 -235 0 -123 3 -230 6 -239 5 -13 26
-16 126 -16 118 0 120 0 148 29 16 16 32 26 35 23 7 -7 7 -172 -1 -172 -3 0
-17 14 -31 30 l-25 30 -123 0 c-103 0 -124 -3 -129 -16 -3 -9 -6 -132 -6 -274
0 -251 1 -260 20 -270 14 -7 95 -10 240 -8 l219 3 30 29 c36 35 44 25 39 -50
l-3 -49 -412 -3 c-227 -1 -413 2 -413 6 0 5 8 24 18 43 16 31 17 80 17 584 0
529 -1 551 -20 583 -10 17 -23 32 -27 32 -4 0 -8 5 -8 10 0 7 136 9 403 8
l402 -3 3 -34z m460 27 c11 -14 131 -209 164 -268 51 -90 136 -232 180 -302
26 -42 48 -80 48 -84 0 -3 15 -27 34 -53 18 -25 36 -55 40 -66 9 -31 53 -81
63 -72 4 5 9 179 11 388 3 336 1 383 -14 414 -9 19 -20 35 -25 35 -5 0 -9 5
-9 10 0 6 35 10 84 10 47 0 88 -4 91 -10 3 -5 2 -10 -3 -10 -5 0 -17 -15 -26
-34 -14 -30 -16 -102 -16 -625 l0 -591 -74 0 -73 0 -29 43 c-29 42 -80 126
-149 245 -20 34 -53 88 -74 120 -21 31 -40 62 -42 67 -7 17 -120 208 -140 238
-11 15 -32 51 -48 80 -34 64 -120 205 -149 244 -42 57 -44 36 -40 -473 3 -477
3 -479 26 -515 12 -20 22 -39 22 -43 0 -3 -38 -6 -85 -6 -47 0 -85 2 -85 5 0
3 9 22 20 42 19 36 20 57 20 586 0 485 -2 553 -16 583 -9 19 -21 34 -26 34 -5
0 -6 5 -3 10 10 15 310 13 323 -2z m1628 1 c3 -6 -13 -50 -36 -97 -23 -48 -64
-132 -90 -187 -27 -55 -101 -208 -165 -340 -179 -366 -245 -511 -245 -535 0
-23 59 -30 265 -30 168 0 228 9 244 38 13 24 22 11 23 -34 1 -82 48 -74 -422
-74 -318 0 -420 3 -420 12 0 6 29 71 64 142 35 72 91 187 124 256 33 69 83
175 112 235 29 61 79 166 112 235 33 69 77 159 99 202 43 84 47 103 23 112 -9
3 -96 6 -194 6 -179 0 -252 -11 -272 -43 -4 -7 -8 13 -8 44 0 31 3 59 7 62 12
12 771 8 779 -4z m761 -1 c6 -7 20 -42 33 -78 12 -36 49 -141 82 -235 33 -93
74 -215 93 -270 79 -235 165 -479 203 -576 6 -15 22 -39 36 -54 14 -15 26 -32
26 -36 0 -10 -323 -12 -333 -3 -3 4 -2 15 4 26 17 31 -42 251 -78 290 -15 16
-37 18 -233 18 -249 0 -234 6 -269 -98 -28 -82 -28 -146 2 -189 12 -18 26 -33
30 -33 5 0 5 -4 2 -10 -4 -6 -58 -10 -131 -10 -137 0 -150 7 -95 52 50 41 69
84 172 393 22 66 55 163 73 215 18 52 40 118 49 145 9 28 36 106 60 175 25 69
57 159 72 200 15 41 29 78 32 82 8 14 160 9 170 -4z m965 6 c4 -3 -5 -22 -18
-41 l-24 -36 0 -543 c0 -520 1 -544 20 -589 11 -26 20 -49 20 -51 0 -2 -74 -4
-165 -4 -91 0 -165 3 -165 7 0 4 9 26 20 49 20 40 20 57 18 597 l-3 555 -23
24 c-12 14 -19 28 -15 31 8 8 327 9 335 1z"/>
<path d="M6123 8538 c-17 -22 -23 -47 -13 -53 6 -4 10 3 10 14 0 12 4 21 9 21
5 0 11 7 15 15 7 18 -8 20 -21 3z"/>
<path d="M5613 8326 c-32 -37 -57 -146 -34 -146 13 0 51 82 58 124 6 37 -3 45
-24 22z"/>
<path d="M5972 8075 c0 -16 2 -22 5 -12 2 9 2 23 0 30 -3 6 -5 -1 -5 -18z"/>
<path d="M5763 8055 c0 -27 2 -38 4 -22 2 15 2 37 0 50 -2 12 -4 0 -4 -28z"/>
<path d="M5112 7745 c0 -16 2 -22 5 -12 2 9 2 23 0 30 -3 6 -5 -1 -5 -18z"/>
<path d="M6845 6570 c3 -5 8 -10 11 -10 2 0 4 5 4 10 0 6 -5 10 -11 10 -5 0
-7 -4 -4 -10z"/>
<path d="M6905 7720 c-10 -11 -15 -20 -11 -20 11 0 39 30 34 36 -3 2 -13 -5
-23 -16z"/>
<path d="M6482 7635 c0 -16 2 -22 5 -12 2 9 2 23 0 30 -3 6 -5 -1 -5 -18z"/>
<path d="M7010 7469 c0 -5 5 -7 10 -4 6 3 10 8 10 11 0 2 -4 4 -10 4 -5 0 -10
-5 -10 -11z"/>
<path d="M4970 7088 c0 -26 48 -91 61 -82 10 6 -39 104 -53 104 -4 0 -8 -10
-8 -22z"/>
<path d="M4555 6600 c-3 -5 -1 -10 4 -10 6 0 11 5 11 10 0 6 -2 10 -4 10 -3 0
-8 -4 -11 -10z"/>
<path d="M4530 6564 c0 -8 5 -12 10 -9 6 3 10 10 10 16 0 5 -4 9 -10 9 -5 0
-10 -7 -10 -16z"/>
<path d="M5065 6580 c-3 -5 -1 -10 4 -10 6 0 11 5 11 10 0 6 -2 10 -4 10 -3 0
-8 -4 -11 -10z"/>
<path d="M5040 6550 c0 -6 -11 -23 -25 -38 -24 -26 -35 -70 -15 -57 14 9 60
82 60 95 0 5 -4 10 -10 10 -5 0 -10 -5 -10 -10z"/>
<path d="M4406 5908 c-11 -18 -28 -41 -39 -50 -10 -9 -17 -24 -15 -32 2 -10
17 5 41 39 21 31 37 60 35 66 -2 5 -12 -5 -22 -23z"/>
<path d="M5924 5156 c-12 -31 0 -51 31 -51 27 0 30 3 30 30 0 25 -4 30 -28 33
-17 2 -29 -2 -33 -12z"/>
<path d="M5847 4666 c-9 -21 -17 -42 -17 -45 0 -21 -137 -235 -206 -321 -126
-160 -374 -351 -654 -503 -30 -16 -80 -44 -110 -63 -30 -18 -90 -48 -132 -68
-43 -19 -78 -39 -78 -45 0 -5 -6 -11 -12 -14 -7 -2 1 -2 17 1 52 8 276 88 368
131 48 22 89 41 92 41 2 0 39 20 81 45 41 25 78 45 81 45 19 0 221 157 283
220 89 90 120 134 199 277 69 125 114 248 109 301 l-3 37 -18 -39z"/>
<path d="M5930 4505 c-13 -16 -6 -35 15 -35 18 0 26 15 19 34 -8 20 -18 20
-34 1z"/>
<path d="M5614 4499 c-12 -20 -206 -141 -274 -172 -131 -59 -146 -65 -220 -87
-41 -13 -79 -27 -84 -32 -6 -4 -16 -8 -24 -8 -8 0 -28 -6 -45 -14 -18 -7 -59
-19 -92 -26 -33 -7 -73 -16 -89 -21 -16 -5 -41 -9 -55 -9 -14 0 -39 -7 -55
-15 -15 -8 -48 -15 -73 -15 -30 0 -42 -4 -37 -11 11 -18 214 14 214 33 0 5 22
8 48 8 26 0 52 4 58 8 5 5 36 15 69 22 73 15 154 39 177 51 10 5 26 9 36 9 26
0 147 50 237 98 93 49 235 157 235 178 0 17 -16 19 -26 3z"/>
<path d="M5863 4415 c-3 -9 -3 -18 0 -21 9 -9 27 6 27 22 0 19 -19 18 -27 -1z"/>
<path d="M5247 4163 c-13 -12 -7 -33 8 -33 8 0 15 9 15 20 0 20 -11 26 -23 13z"/>
<path d="M4425 4074 c-38 -7 -91 -13 -117 -13 -26 -1 -67 -5 -90 -11 -24 -5
-83 -19 -133 -31 -130 -30 -148 -35 -172 -47 -12 -7 -31 -12 -43 -12 -12 0
-19 -4 -16 -8 3 -5 27 -5 53 0 26 5 71 13 98 18 28 5 104 20 170 35 66 14 140
28 165 31 25 3 54 10 65 15 11 5 45 10 75 11 31 2 53 7 50 13 -7 13 -25 13
-105 -1z"/>
<path d="M4633 4043 c9 -2 23 -2 30 0 6 3 -1 5 -18 5 -16 0 -22 -2 -12 -5z"/>
<path d="M4395 4014 c-248 -42 -355 -71 -328 -87 6 -4 75 7 154 24 187 40 217
46 319 63 l85 14 -75 -1 c-41 0 -111 -6 -155 -13z"/>
<path d="M5740 3991 c-14 -28 -13 -39 9 -51 24 -12 48 -4 54 19 11 44 -42 71
-63 32z"/>
<path d="M5415 3867 c-49 -50 -124 -115 -166 -144 -142 -98 -355 -195 -509
-231 -25 -6 -83 -21 -130 -32 -123 -32 -226 -81 -137 -67 96 16 544 135 584
155 21 11 50 22 65 26 106 25 398 301 398 375 0 22 -17 9 -105 -82z"/>
<path d="M5665 3940 c-4 -6 -3 -16 3 -22 6 -6 12 -6 17 2 4 6 3 16 -3 22 -6 6
-12 6 -17 -2z"/>
<path d="M3813 3933 c9 -2 23 -2 30 0 6 3 -1 5 -18 5 -16 0 -22 -2 -12 -5z"/>
<path d="M4680 3925 c-18 -21 -8 -50 19 -53 31 -5 45 11 37 42 -7 29 -36 35
-56 11z"/>
<path d="M5690 3846 c0 -8 4 -17 8 -20 13 -8 35 11 28 23 -10 16 -36 14 -36
-3z"/>
<path d="M6012 3546 c1 -10 8 -17 13 -17 15 1 12 24 -3 29 -9 3 -13 -2 -10
-12z"/>
<path d="M6067 3454 c-9 -10 2 -24 19 -24 8 0 14 7 14 15 0 15 -21 21 -33 9z"/>
<path d="M5244 3409 c-10 -17 13 -36 27 -22 12 12 4 33 -11 33 -5 0 -12 -5
-16 -11z"/>
<path d="M5828 3378 l-21 -21 23 -19 c31 -25 63 -24 56 2 -3 11 -9 29 -12 40
-7 26 -19 25 -46 -2z"/>
<path d="M5080 3256 c0 -8 4 -17 9 -20 11 -7 33 18 24 27 -12 12 -33 7 -33 -7z"/>
<path d="M7167 2059 c-18 -40 -57 -149 -86 -234 -10 -33 -33 -99 -50 -147 -51
-144 -58 -135 124 -143 184 -9 225 -4 225 28 0 12 -25 92 -54 177 -87 248
-116 324 -130 339 -12 11 -16 8 -29 -20z"/>
</g>
</svg>
